<?xml version="1.0" encoding="utf-8"?>
<!-- Generator: Adobe Illustrator 23.0.1, SVG Export Plug-In . SVG Version: 6.00 Build 0)  -->
<svg version="1.1" id="Calque_1" xmlns="http://www.w3.org/2000/svg" xmlns:xlink="http://www.w3.org/1999/xlink" x="0px" y="0px"
	 viewBox="0 0 15.98 15.98" style="enable-background:new 0 0 15.98 15.98;" xml:space="preserve">
<g>
	<path d="M15.35,1.06l-0.44-0.44c-0.82-0.82-2.16-0.82-2.98,0L8.58,3.97c-0.33,0.33-0.86,0.33-1.19,0L4.03,0.61
		c-0.82-0.82-2.16-0.82-2.98,0L0.61,1.05c-0.82,0.82-0.82,2.16,0,2.98l3.36,3.36c0.33,0.33,0.33,0.86,0,1.19l-3.36,3.36
		c-0.82,0.82-0.82,2.16,0,2.98l0.44,0.44c0.82,0.82,2.16,0.82,2.98,0l3.36-3.36c0.33-0.33,0.86-0.33,1.19,0l3.35,3.35
		c0.82,0.82,2.16,0.82,2.98,0l0.44-0.44c0.82-0.82,0.82-2.16,0-2.98L12,8.59c-0.33-0.33-0.33-0.86,0-1.19l3.35-3.35
		C16.18,3.22,16.18,1.89,15.35,1.06z"/>
</g>
</svg>
