<?xml version="1.0" encoding="utf-8"?>
<!-- Generator: Adobe Illustrator 23.0.1, SVG Export Plug-In . SVG Version: 6.00 Build 0)  -->
<svg version="1.1" id="Calque_1" xmlns="http://www.w3.org/2000/svg" xmlns:xlink="http://www.w3.org/1999/xlink" x="0px" y="0px"
	 viewBox="0 0 51.78 46.81" style="enable-background:new 0 0 51.78 46.81;" xml:space="preserve">
<style type="text/css">
	.st0{fill:#0052B7;}
</style>
<g>
	<g>
		<path class="st0" d="M39.68,28.24c-1.17,0.49-2.41,0.36-3.63-0.12c-1.18-0.47-2.26-1.15-3.34-1.8c-0.64-0.38-1.3-0.75-1.93-1.15
			c-0.63-0.4-1.31-0.52-2.03-0.48c-1.3,0.07-2.51,0.46-3.69,0.99c-0.93,0.42-1.81,0.93-2.57,1.63c-0.51,0.47-0.87,1.01-1.04,1.69
			c-0.35,1.44-0.72,2.87-1.11,4.3c-0.23,0.85-0.51,1.69-0.98,2.44c-1.27,2.02-3.55,2.63-5.46,1.91c-1.22-0.46-1.99-1.36-2.39-2.59
			c-0.72-2.24-1.33-4.52-1.69-6.85c-0.4-2.59-0.53-5.2-0.3-7.82c0.09-0.97,0.34-1.89,0.72-2.79c0.36-0.85,0.96-1.48,1.7-1.97
			c0.76-0.5,1.52-1.01,2.31-1.43c0.66-0.35,1.38-0.59,2.14-0.66c0.74-0.07,1.4,0.14,1.97,0.64c0.24,0.21,0.45,0.44,0.69,0.65
			c0.06,0.06,0.2,0.1,0.26,0.07c0.98-0.39,1.95-0.8,2.91-1.21c0.06-0.03,0.12-0.14,0.13-0.22c0.02-0.19,0-0.38,0-0.58
			c-0.04-1.23,0.52-2.1,1.58-2.66c1.57-0.82,3.25-1.24,5-1.36c0.8-0.06,1.51,0.25,2.22,0.57c1.09,0.49,1.99,1.25,2.86,2.05
			c2.21,2.05,4.14,4.34,5.72,6.91c0.8,1.31,1.54,2.65,2.28,4c1.23,2.27,0,4.49-1.58,5.48C40.23,28.01,39.99,28.1,39.68,28.24z
			 M13.38,34.48c0.14,0.39,0.3,0.75,0.64,1.02c0.83,0.64,2.02,0.68,2.87,0.07c0.71-0.51,1.12-1.24,1.36-2.05
			c0.34-1.16,0.62-2.34,0.93-3.51c0.19-0.71,0.33-1.44,0.57-2.13c0.36-1.04,1.13-1.79,1.96-2.48c0.88-0.72,1.89-1.19,2.93-1.63
			c1.25-0.53,2.52-0.96,3.89-1.02c1.17-0.05,2.26,0.14,3.28,0.77c1.3,0.81,2.63,1.56,3.95,2.33c0.56,0.33,1.14,0.58,1.78,0.69
			c0.73,0.13,1.42,0.03,2.04-0.42c0.95-0.69,1.23-1.8,0.69-2.84c-0.39-0.75-0.8-1.49-1.21-2.23c-1.59-2.8-3.5-5.35-5.83-7.58
			c-0.85-0.81-1.72-1.61-2.75-2.2c-0.49-0.28-1.01-0.49-1.59-0.43c-1.33,0.14-2.62,0.43-3.83,1.01c-0.49,0.24-0.77,0.59-0.75,1.16
			c0.01,0.36-0.02,0.72-0.07,1.07c-0.08,0.58-0.39,1.02-0.92,1.26c-0.85,0.39-1.71,0.76-2.57,1.13c-0.32,0.14-0.65,0.24-0.97,0.35
			c-0.67,0.24-1.26,0.1-1.79-0.35c-0.3-0.26-0.6-0.53-0.89-0.8c-0.15-0.14-0.33-0.21-0.53-0.16c-0.35,0.08-0.72,0.13-1.05,0.27
			c-0.92,0.38-1.74,0.95-2.54,1.53c-0.64,0.46-1.06,1.05-1.22,1.83c-0.11,0.53-0.23,1.07-0.27,1.61c-0.23,3-0.04,5.98,0.6,8.93
			C12.43,31.28,12.84,32.9,13.38,34.48z"/>
		<path class="st0" d="M17.4,20.82c0.34-0.14,0.66-0.28,0.97-0.4c0.2-0.08,0.4-0.16,0.6-0.22c0.2-0.07,0.39,0,0.47,0.19
			c0.29,0.66,0.57,1.33,0.83,2c0.09,0.24-0.01,0.4-0.29,0.54c-0.4,0.19-0.8,0.37-1.2,0.55c-0.06,0.03-0.12,0.06-0.2,0.1
			c0.03,0.08,0.05,0.16,0.07,0.23c0.16,0.42,0.32,0.83,0.47,1.26c0.1,0.3,0.06,0.46-0.22,0.58c-0.63,0.28-1.26,0.55-1.91,0.78
			c-0.28,0.1-0.42,0.03-0.55-0.25c-0.19-0.39-0.35-0.79-0.52-1.19c-0.04-0.08-0.07-0.16-0.12-0.29c-0.2,0.09-0.39,0.17-0.58,0.24
			c-0.3,0.12-0.6,0.24-0.91,0.34c-0.32,0.11-0.59,0-0.72-0.3c-0.24-0.58-0.47-1.16-0.69-1.75c-0.12-0.33-0.04-0.5,0.28-0.65
			c0.4-0.19,0.8-0.36,1.21-0.54c0.07-0.03,0.14-0.06,0.25-0.1c-0.11-0.26-0.21-0.5-0.31-0.74c-0.1-0.26-0.21-0.53-0.3-0.79
			c-0.08-0.25-0.02-0.47,0.22-0.57c0.62-0.27,1.25-0.53,1.89-0.77c0.3-0.11,0.45-0.03,0.6,0.27c0.14,0.27,0.27,0.56,0.39,0.84
			C17.22,20.38,17.3,20.58,17.4,20.82z M14.35,24.19c0.07-0.02,0.11-0.04,0.16-0.06c0.44-0.17,0.86-0.36,1.31-0.51
			c0.36-0.12,0.53-0.03,0.69,0.32c0.17,0.4,0.34,0.8,0.5,1.2c0.06,0.16,0.13,0.18,0.28,0.11c0.17-0.08,0.35-0.16,0.53-0.22
			c0.17-0.06,0.21-0.13,0.13-0.3c-0.18-0.4-0.34-0.8-0.49-1.2c-0.12-0.32-0.04-0.54,0.26-0.71c0.14-0.08,0.29-0.13,0.43-0.2
			c0.33-0.14,0.66-0.27,1-0.41c-0.13-0.32-0.25-0.61-0.39-0.93c-0.09,0.04-0.16,0.07-0.23,0.1c-0.41,0.16-0.81,0.34-1.23,0.49
			c-0.28,0.1-0.52-0.01-0.65-0.28c-0.12-0.25-0.22-0.5-0.33-0.76c-0.09-0.22-0.18-0.44-0.28-0.66c-0.32,0.14-0.63,0.26-0.94,0.39
			c0.03,0.08,0.06,0.15,0.09,0.22c0.15,0.38,0.31,0.75,0.46,1.13c0.17,0.43,0.1,0.59-0.32,0.79c-0.38,0.18-0.77,0.33-1.16,0.5
			c-0.07,0.03-0.13,0.06-0.2,0.1C14.1,23.6,14.22,23.89,14.35,24.19z"/>
		<path class="st0" d="M26.85,15.74c-0.34-0.79,0-1.7,0.79-2.02c0.89-0.35,1.65-0.08,2.05,0.79c0.37,0.82,0.04,1.63-0.82,2.04
			C28.12,16.9,27.19,16.51,26.85,15.74z M28.77,14.91c-0.15-0.39-0.44-0.41-0.76-0.31c-0.25,0.07-0.38,0.49-0.28,0.74
			c0.12,0.29,0.46,0.44,0.75,0.31C28.81,15.51,28.91,15.25,28.77,14.91z"/>
		<path class="st0" d="M28.8,20.39c-0.32-0.78,0.03-1.67,0.79-1.99c0.81-0.34,1.74,0.03,2.07,0.83c0.32,0.78-0.04,1.67-0.82,1.99
			C30,21.57,29.14,21.21,28.8,20.39z M30.73,19.62c-0.13-0.32-0.42-0.44-0.72-0.32c-0.29,0.12-0.44,0.45-0.33,0.73
			c0.12,0.3,0.46,0.43,0.77,0.31C30.75,20.21,30.86,19.93,30.73,19.62z"/>
		<path class="st0" d="M27.37,19.91c-0.79,0.33-1.69-0.05-2.02-0.84c-0.26-0.62-0.16-1.59,0.88-2c0.81-0.32,1.64,0.01,1.96,0.8
			C28.54,18.7,28.18,19.58,27.37,19.91z M27,19.01c0.29-0.11,0.43-0.44,0.31-0.73c-0.12-0.3-0.43-0.43-0.75-0.31
			c-0.29,0.11-0.43,0.43-0.31,0.73C26.37,19,26.7,19.13,27,19.01z"/>
		<path class="st0" d="M32.18,17.92c-0.8,0.32-1.69-0.04-2.01-0.82c-0.33-0.81,0.04-1.69,0.85-2.01c0.81-0.33,1.69,0.04,2.02,0.83
			C33.35,16.69,32.96,17.6,32.18,17.92z M31.81,17.01c0.3-0.12,0.43-0.44,0.31-0.73c-0.12-0.29-0.47-0.44-0.75-0.32
			c-0.27,0.11-0.42,0.48-0.3,0.76C31.19,17.01,31.52,17.14,31.81,17.01z"/>
	</g>
</g>
</svg>
