<?xml version="1.0" encoding="utf-8"?>
<!-- Generator: Adobe Illustrator 23.0.1, SVG Export Plug-In . SVG Version: 6.00 Build 0)  -->
<svg version="1.1" id="Calque_1" xmlns="http://www.w3.org/2000/svg" xmlns:xlink="http://www.w3.org/1999/xlink" x="0px" y="0px"
	 viewBox="0 0 36.22 30.22" style="enable-background:new 0 0 36.22 30.22;" xml:space="preserve">
<style type="text/css">
	.st0{fill:#0052B7;stroke:#0052B7;stroke-width:0.75;stroke-miterlimit:10;}
</style>
<path class="st0" d="M18.1,17.07c2.42-0.06,4.47,1.79,4.72,4.31c0.08,0.8,0.05,4.22,0.05,5.15c1.56,0,2.98,0,4.5,0
	c0-0.44,0.01-7.45,0-10.63c0-0.68,0.05-1.35,0.91-1.33c0.77,0.01,0.89,0.63,0.89,1.29c-0.01,3.75,0,7.49-0.01,11.24
	c0,0.99-0.28,1.27-1.28,1.28c-1.84,0.01-3.69,0.01-5.53,0c-1.01-0.01-1.25-0.26-1.25-1.29c-0.01-1.63,0-3.27-0.01-4.91
	c-0.01-2-1.2-3.34-2.93-3.31c-1.73-0.03-2.92,1.31-2.93,3.31c-0.01,1.64,0,3.27-0.01,4.91c-0.01,1.03-0.25,1.28-1.25,1.29
	c-1.84,0.01-3.69,0.01-5.53,0c-1-0.01-1.28-0.29-1.28-1.28c-0.01-3.75,0-7.49-0.01-11.24c0-0.65,0.11-1.27,0.89-1.29
	c0.85-0.01,0.91,0.66,0.91,1.33c-0.01,3.18,0,10.19,0,10.63c1.52,0,2.93,0,4.5,0c0-0.93-0.03-4.35,0.05-5.15
	c0.25-2.52,2.3-4.37,4.72-4.31"/>
<path class="st0" d="M19.02,2.09c4.82,3.87,9.71,7.74,14.55,11.59c0.5,0.4,0.94,0.86,0.43,1.48c-0.49,0.6-1.05,0.33-1.56-0.08
	c-1.35-1.08-2.7-2.15-4.05-3.22C25,9.15,21.61,6.45,18.15,3.69c-3.46,2.76-6.86,5.46-10.25,8.17C6.55,12.93,5.2,14,3.85,15.08
	c-0.51,0.41-1.07,0.68-1.56,0.08c-0.51-0.62-0.08-1.08,0.43-1.48c4.84-3.85,9.68-7.7,14.5-11.57C17.87,1.58,18.37,1.56,19.02,2.09z"
	/>
</svg>
