<?xml version="1.0" encoding="utf-8"?>
<!-- Generator: Adobe Illustrator 23.0.1, SVG Export Plug-In . SVG Version: 6.00 Build 0)  -->
<svg version="1.1" id="Calque_1" xmlns="http://www.w3.org/2000/svg" xmlns:xlink="http://www.w3.org/1999/xlink" x="0px" y="0px"
	 viewBox="0 0 207.01 14.48" style="enable-background:new 0 0 207.01 14.48;" xml:space="preserve">
<g>
	<g>
		<path d="M65.35,7.73v6.33H63.7v-6.1l-4.61-7.5h2.03L65.35,7.73z"/>
	</g>
	<g>
		<path d="M180.31,8.46v5.59h-1.64V0.45h1.64v5.98l5.71-5.98h2.21L180.31,8.46z M183.17,7.65l5.65,6.4l-2.33,0.01l-4.46-5.29
			L183.17,7.65z"/>
	</g>
	<g>
		<polygon points="141.31,12.58 141.31,7.34 141.31,5.95 141.31,1.92 141.31,0.45 139.68,0.45 139.68,14.05 141.31,14.05 		"/>
	</g>
	<g>
		<rect x="142.68" y="12.58" width="4.39" height="1.47"/>
	</g>
	<g>
		<rect x="142.68" y="0.45" width="4.39" height="1.47"/>
	</g>
	<g>
		<g>
			<rect x="44.47" y="12.58" width="3.35" height="1.47"/>
		</g>
		<g>
			<polygon points="42.8,12.58 42.8,11 42.8,0.45 41.11,0.45 41.11,14.05 42.8,14.05 			"/>
		</g>
	</g>
	<g>
		<g>
			<polygon points="104.81,0.45 99.21,0.45 99.21,1.89 103.12,1.89 103.12,14.05 104.81,14.05 104.81,3.5 104.81,1.89 			"/>
		</g>
		<g>
			<rect x="106.2" y="0.45" width="2.53" height="1.43"/>
		</g>
	</g>
	<g>
		<g>
			<polygon points="130.93,0.45 127.61,10.98 126.85,13.39 127.2,14.48 127.69,14.47 132.68,0.45 			"/>
		</g>
		<g>
			<polygon points="126.82,9.12 124,0.3 123.6,0.3 120.12,11.3 116.56,0.45 114.72,0.45 119.95,14.47 120.43,14.48 123.79,3.74 
				126.16,11.21 			"/>
		</g>
	</g>
	<g>
		<path d="M206.49,8.34c-0.34-0.61-0.82-1.08-1.46-1.44l-0.57-0.21l-1.07,1.33h0.01c0.47,0.21,0.77,0.36,0.93,0.46
			c0.15,0.1,0.36,0.29,0.62,0.57s0.4,0.71,0.4,1.3c0,0.39-0.08,0.76-0.25,1.12c-0.17,0.35-0.39,0.63-0.66,0.84
			c-0.28,0.21-0.56,0.36-0.85,0.45s-0.58,0.14-0.87,0.14c-0.75,0-1.4-0.26-1.95-0.77c-0.36-0.34-0.6-0.73-0.73-1.18h-1.59l0,0
			c0.18,0.64,0.39,1.15,0.62,1.55c0.23,0.4,0.55,0.76,0.98,1.08c0.8,0.48,1.67,0.72,2.63,0.72c1.07,0,2.03-0.3,2.89-0.9
			c0.48-0.42,0.84-0.89,1.08-1.43s0.36-1.1,0.36-1.69C207,9.59,206.83,8.95,206.49,8.34z"/>
	</g>
	<g>
		<path d="M201.45,1.88c0.34-0.18,0.74-0.27,1.19-0.27c0.61,0,1.18,0.17,1.69,0.52c0.28,0.19,0.5,0.41,0.67,0.66h1.75
			c-0.21-0.64-0.57-1.18-1.09-1.61c-0.52-0.44-1.01-0.71-1.47-0.8s-0.74-0.14-0.85-0.16c-0.11-0.01-0.26-0.02-0.46-0.02
			c-0.45,0-0.97,0.06-1.55,0.17c-0.58,0.12-1.12,0.44-1.61,0.98s-0.78,1.05-0.87,1.53s-0.14,0.82-0.14,1c0,0.72,0.21,1.37,0.64,1.94
			s0.99,1.02,1.69,1.35l0.34,0.12l1.09-1.36l-0.94-0.35c-0.77-0.42-1.16-1.04-1.16-1.86c0-0.34,0.07-0.68,0.22-1.01
			C200.82,2.35,201.11,2.05,201.45,1.88z"/>
	</g>
	<g>
		<path d="M145.87,5.45c-0.58,0-1.07,0.42-1.18,0.97h-2.01v0.46h2.01c0.11,0.55,0.59,0.97,1.18,0.97c0.66,0,1.2-0.54,1.2-1.2
			C147.07,5.98,146.53,5.45,145.87,5.45z M145.89,7.39c-0.41,0-0.74-0.33-0.74-0.74s0.33-0.74,0.74-0.74s0.74,0.33,0.74,0.74
			S146.3,7.39,145.89,7.39z"/>
	</g>
	<g>
		<path d="M163.02,3.39l4.47,10.66h1.91l-6.16-13.99h-0.44l-5.97,13.99h1.76l1.74-4.17h1.52c0.11,0.55,0.59,0.97,1.18,0.97
			c0.66,0,1.2-0.54,1.2-1.2s-0.54-1.2-1.2-1.2c-0.58,0-1.07,0.42-1.18,0.97h-1.33L163.02,3.39z M163.05,8.91
			c0.41,0,0.74,0.33,0.74,0.74s-0.33,0.74-0.74,0.74s-0.74-0.33-0.74-0.74S162.63,8.91,163.05,8.91z"/>
	</g>
	<g>
		<path d="M68.21,0.45c-0.66,0-1.2,0.54-1.19,1.21c0,0.34,0.15,0.65,0.38,0.87l-1.95,3.14l0.28,0.46l2.08-3.35
			c0.13,0.05,0.27,0.07,0.42,0.07c0.66,0,1.2-0.54,1.19-1.21S68.87,0.45,68.21,0.45z M68.22,2.37c-0.41,0-0.75-0.33-0.75-0.74
			s0.33-0.75,0.74-0.75s0.75,0.33,0.75,0.74S68.63,2.37,68.22,2.37z"/>
	</g>
	<g>
		<g>
			<rect x="9.13" y="0.45" width="1.6" height="13.6"/>
		</g>
		<g>
			<path d="M7.06,5.45C6.48,5.45,6,5.86,5.89,6.41H1.6V0.45H0v13.6h1.6V6.87h4.29C6,7.42,6.48,7.83,7.06,7.83
				c0.66,0,1.19-0.53,1.19-1.19C8.26,5.99,7.72,5.45,7.06,5.45z M7.06,7.38c-0.41,0-0.73-0.33-0.73-0.73s0.33-0.73,0.73-0.73
				s0.73,0.33,0.73,0.73C7.8,7.05,7.47,7.38,7.06,7.38z"/>
		</g>
	</g>
	<g>
		<path d="M25.08,7.42h4.21c0.1,0.56,0.59,0.98,1.17,0.98c0.66,0,1.19-0.53,1.19-1.19s-0.53-1.19-1.19-1.19
			c-0.58,0-1.06,0.41-1.17,0.95h-4.4l-1.46,1.46h-4.04c-0.09-0.39-0.13-0.8-0.13-1.22c0-0.07,0-0.13,0-0.2h1.45
			c0.11,0.55,0.59,0.96,1.17,0.96c0.66,0,1.19-0.53,1.19-1.19s-0.53-1.19-1.19-1.19c-0.58,0-1.06,0.41-1.17,0.96h-1.42
			c0.06-0.51,0.18-1,0.36-1.45h5.97l1.51-1.53h2.15c0.1,0.55,0.59,0.97,1.17,0.97c0.66,0,1.19-0.53,1.19-1.19s-0.53-1.19-1.19-1.19
			c-0.58,0-1.06,0.41-1.17,0.95h-2.34l-1.52,1.52h-5.57c0.39-0.78,0.95-1.45,1.63-1.97l0.69,0.7h1.21c0.11,0.55,0.59,0.96,1.17,0.96
			c0.66,0,1.19-0.53,1.19-1.19s-0.53-1.19-1.19-1.19c-0.58,0-1.06,0.41-1.17,0.96h-1.02l-0.5-0.51c0.89-0.58,1.96-0.91,3.1-0.91
			c1.14,0,2.2,0.33,3.09,0.9L29,1.24C27.85,0.46,26.46,0,24.96,0c-3.97,0-7.2,3.22-7.2,7.2s3.22,7.2,7.2,7.2
			c1.37,0,2.65-0.38,3.74-1.05l-0.78-1.24c-0.86,0.52-1.88,0.82-2.96,0.82c-0.48,0-0.95-0.06-1.39-0.17l1.49-1.49h4.21
			c0.1,0.56,0.59,0.98,1.17,0.98c0.66,0,1.19-0.53,1.19-1.19s-0.53-1.19-1.19-1.19c-0.57,0-1.05,0.41-1.17,0.95h-4.4l-1.81,1.8
			c-0.97-0.34-1.82-0.94-2.47-1.71h2.79l1.64-1.54h1.03c0.11,0.55,0.59,0.96,1.17,0.96c0.66,0,1.19-0.53,1.19-1.19
			s-0.53-1.19-1.19-1.19c-0.58,0-1.06,0.41-1.17,0.96h-1.21l-1.63,1.54h-2.96c-0.33-0.47-0.58-1-0.75-1.56h4.11L25.08,7.42z
			 M30.46,6.47c0.4,0,0.73,0.33,0.73,0.73s-0.33,0.73-0.73,0.73c-0.41,0-0.73-0.33-0.73-0.73S30.06,6.47,30.46,6.47z M21.89,6.05
			c0.4,0,0.73,0.33,0.73,0.73s-0.33,0.73-0.73,0.73s-0.73-0.33-0.73-0.73C21.15,6.38,21.48,6.05,21.89,6.05z M30.46,2.62
			c0.4,0,0.73,0.33,0.73,0.73s-0.33,0.73-0.73,0.73c-0.41,0-0.73-0.33-0.73-0.73S30.06,2.62,30.46,2.62z M24.58,2.4
			c0.41,0,0.73,0.33,0.73,0.73s-0.33,0.73-0.73,0.73s-0.73-0.33-0.73-0.73C23.84,2.73,24.17,2.4,24.58,2.4z M30.46,10.33
			c0.4,0,0.73,0.33,0.73,0.73s-0.33,0.73-0.73,0.73c-0.41,0-0.73-0.33-0.73-0.73C29.73,10.65,30.06,10.33,30.46,10.33z M27.24,8.4
			c0.4,0,0.73,0.33,0.73,0.73s-0.33,0.73-0.73,0.73c-0.41,0-0.73-0.33-0.73-0.73S26.83,8.4,27.24,8.4z"/>
	</g>
</g>
</svg>
