<?xml version="1.0" encoding="utf-8"?>
<!-- Generator: Adobe Illustrator 23.0.1, SVG Export Plug-In . SVG Version: 6.00 Build 0)  -->
<svg version="1.1" id="Calque_1" xmlns="http://www.w3.org/2000/svg" xmlns:xlink="http://www.w3.org/1999/xlink" x="0px" y="0px"
	 viewBox="0 0 51.78 46.81" style="enable-background:new 0 0 51.78 46.81;" xml:space="preserve">
<style type="text/css">
	.st0{fill:#0052B7;}
</style>
<path class="st0" d="M16.15,20.32c-1.14-0.32-2.26-0.63-3.46-0.96c0.28-0.68,0.5-1.35,0.81-1.97c2.08-4.27,5.52-6.78,10.15-7.62
	c3.92-0.71,7.44,0.35,10.63,2.66c0.2,0.14,0.43,0.28,0.66,0.32c0.32,0.05,0.56-0.2,0.54-0.52c-0.02-0.36-0.09-0.72-0.13-1.08
	c-0.09-0.73,0.3-1.26,0.99-1.36c0.52-0.08,1.07,0.36,1.18,1c0.21,1.23,0.39,2.47,0.59,3.7c0.19,1.21,0.39,2.42,0.55,3.63
	c0.09,0.66-0.36,1.4-1.21,1.32c-2.17-0.21-4.35-0.42-6.52-0.64c-0.91-0.09-1.34-0.82-0.97-1.64c0.19-0.42,0.62-0.65,1.1-0.6
	c0.35,0.04,0.7,0.06,1.05,0.1c0.27,0.03,0.47-0.11,0.55-0.32c0.08-0.22,0.07-0.46-0.14-0.66c-1.23-1.12-2.65-1.88-4.27-2.23
	c-2.58-0.55-5.08-0.32-7.39,1.04c-2.22,1.3-3.81,3.16-4.64,5.63C16.21,20.18,16.19,20.23,16.15,20.32z"/>
<path class="st0" d="M35.63,26.34c1.14,0.32,2.26,0.63,3.46,0.96c-0.28,0.68-0.5,1.35-0.81,1.97c-2.08,4.27-5.52,6.78-10.15,7.62
	c-3.92,0.71-7.44-0.35-10.63-2.66c-0.2-0.14-0.43-0.28-0.66-0.32c-0.32-0.05-0.56,0.2-0.54,0.52c0.02,0.36,0.09,0.72,0.13,1.08
	c0.09,0.73-0.3,1.26-0.99,1.36c-0.52,0.08-1.07-0.36-1.18-1c-0.21-1.23-0.39-2.47-0.59-3.7c-0.19-1.21-0.39-2.42-0.55-3.63
	c-0.09-0.66,0.36-1.4,1.21-1.32c2.17,0.21,4.35,0.42,6.52,0.64c0.91,0.09,1.34,0.82,0.97,1.64c-0.19,0.42-0.62,0.65-1.1,0.6
	c-0.35-0.04-0.7-0.06-1.05-0.1c-0.27-0.03-0.47,0.11-0.55,0.32c-0.08,0.22-0.07,0.46,0.14,0.66c1.23,1.12,2.65,1.88,4.27,2.23
	c2.58,0.55,5.08,0.32,7.39-1.04c2.22-1.3,3.81-3.16,4.64-5.63C35.57,26.49,35.59,26.43,35.63,26.34z"/>
</svg>
