<?xml version="1.0" encoding="utf-8"?>
<!-- Generator: Adobe Illustrator 23.0.1, SVG Export Plug-In . SVG Version: 6.00 Build 0)  -->
<svg version="1.1" id="Calque_1" xmlns="http://www.w3.org/2000/svg" xmlns:xlink="http://www.w3.org/1999/xlink" x="0px" y="0px"
	 viewBox="0 0 51.78 46.81" style="enable-background:new 0 0 51.78 46.81;" xml:space="preserve">
<style type="text/css">
	.st0{fill:#0052B7;}
</style>
<path class="st0" d="M27.04,9.56H14.12c-0.95,0-1.72,0.77-1.72,1.72v9.48c0,0.95,0.77,1.72,1.72,1.72h12.92
	c0.95,0,1.72-0.77,1.72-1.72v-9.48C28.76,10.33,27.99,9.56,27.04,9.56z M27.05,20.25c0,0.29-0.23,0.52-0.52,0.52h-11.9
	c-0.29,0-0.52-0.23-0.52-0.52v-8.46c0-0.29,0.23-0.52,0.52-0.52h11.9c0.29,0,0.52,0.23,0.52,0.52L27.05,20.25L27.05,20.25z"/>
<path class="st0" d="M39.09,24.19H26.18c-0.95,0-1.72,0.77-1.72,1.72v9.48c0,0.95,0.77,1.72,1.72,1.72h12.92
	c0.95,0,1.72-0.77,1.72-1.72v-9.48C40.82,24.96,40.04,24.19,39.09,24.19z M39.1,34.88c0,0.29-0.23,0.52-0.52,0.52h-11.9
	c-0.29,0-0.52-0.23-0.52-0.52v-8.46c0-0.29,0.23-0.52,0.52-0.52h11.9c0.29,0,0.52,0.23,0.52,0.52L39.1,34.88L39.1,34.88z"/>
<path class="st0" d="M21.01,24.19h-6.89c-0.95,0-1.72,0.77-1.72,1.72v9.48c0,0.95,0.77,1.72,1.72,1.72h6.89
	c0.95,0,1.72-0.77,1.72-1.72v-9.48C22.73,24.96,21.96,24.19,21.01,24.19z M21.01,34.88c0,0.29-0.23,0.52-0.52,0.52h-5.85
	c-0.29,0-0.52-0.23-0.52-0.52v-8.46c0-0.29,0.23-0.52,0.52-0.52h5.85c0.29,0,0.52,0.23,0.52,0.52V34.88z"/>
<path class="st0" d="M39.09,9.56H32.2c-0.95,0-1.72,0.77-1.72,1.72v9.48c0,0.95,0.77,1.72,1.72,1.72h6.89
	c0.95,0,1.72-0.77,1.72-1.72v-9.48C40.82,10.33,40.04,9.56,39.09,9.56z M39.09,20.25c0,0.29-0.23,0.52-0.52,0.52h-5.85
	c-0.29,0-0.52-0.23-0.52-0.52v-8.46c0-0.29,0.23-0.52,0.52-0.52h5.85c0.29,0,0.52,0.23,0.52,0.52V20.25z"/>
</svg>
